<mxfile host="app.diagrams.net" agent="Mozilla/5.0 (X11; Ubuntu; Linux x86_64; rv:131.0) Gecko/20100101 Firefox/131.0" version="24.8.4">
  <diagram name="Page-1" id="BnJTHX-FgP2X6mprzwFl">
    <mxGraphModel dx="640" dy="418" grid="1" gridSize="10" guides="1" tooltips="1" connect="1" arrows="1" fold="1" page="1" pageScale="1" pageWidth="413" pageHeight="583" math="0" shadow="0">
      <root>
        <mxCell id="0" />
        <mxCell id="1" parent="0" />
        <mxCell id="LJy8CON3-BYgUMsDqb2D-6" style="edgeStyle=orthogonalEdgeStyle;rounded=0;orthogonalLoop=1;jettySize=auto;html=1;exitX=0.5;exitY=1;exitDx=0;exitDy=0;entryX=0.5;entryY=0;entryDx=0;entryDy=0;" edge="1" parent="1" source="LJy8CON3-BYgUMsDqb2D-1" target="LJy8CON3-BYgUMsDqb2D-2">
          <mxGeometry relative="1" as="geometry" />
        </mxCell>
        <mxCell id="LJy8CON3-BYgUMsDqb2D-1" value="Selection of a multitude of projects" style="rounded=0;whiteSpace=wrap;html=1;" vertex="1" parent="1">
          <mxGeometry x="40" y="40" width="120" height="40" as="geometry" />
        </mxCell>
        <mxCell id="LJy8CON3-BYgUMsDqb2D-7" style="edgeStyle=orthogonalEdgeStyle;rounded=0;orthogonalLoop=1;jettySize=auto;html=1;exitX=0.5;exitY=1;exitDx=0;exitDy=0;entryX=0.5;entryY=0;entryDx=0;entryDy=0;" edge="1" parent="1" source="LJy8CON3-BYgUMsDqb2D-2" target="LJy8CON3-BYgUMsDqb2D-4">
          <mxGeometry relative="1" as="geometry" />
        </mxCell>
        <mxCell id="LJy8CON3-BYgUMsDqb2D-2" value="Selection of one data clump manually" style="rounded=0;whiteSpace=wrap;html=1;" vertex="1" parent="1">
          <mxGeometry x="40" y="120" width="120" height="40" as="geometry" />
        </mxCell>
        <mxCell id="LJy8CON3-BYgUMsDqb2D-9" style="edgeStyle=orthogonalEdgeStyle;rounded=0;orthogonalLoop=1;jettySize=auto;html=1;exitX=0.5;exitY=1;exitDx=0;exitDy=0;" edge="1" parent="1" source="LJy8CON3-BYgUMsDqb2D-3" target="LJy8CON3-BYgUMsDqb2D-5">
          <mxGeometry relative="1" as="geometry" />
        </mxCell>
        <mxCell id="LJy8CON3-BYgUMsDqb2D-3" value="Executing the complete pipeline" style="rounded=0;whiteSpace=wrap;html=1;" vertex="1" parent="1">
          <mxGeometry x="40" y="280" width="120" height="40" as="geometry" />
        </mxCell>
        <mxCell id="LJy8CON3-BYgUMsDqb2D-8" style="edgeStyle=orthogonalEdgeStyle;rounded=0;orthogonalLoop=1;jettySize=auto;html=1;exitX=0.5;exitY=1;exitDx=0;exitDy=0;" edge="1" parent="1" source="LJy8CON3-BYgUMsDqb2D-4" target="LJy8CON3-BYgUMsDqb2D-3">
          <mxGeometry relative="1" as="geometry" />
        </mxCell>
        <mxCell id="LJy8CON3-BYgUMsDqb2D-4" value="Parameterization via different refactoring methods" style="rounded=0;whiteSpace=wrap;html=1;" vertex="1" parent="1">
          <mxGeometry x="35" y="200" width="130" height="50" as="geometry" />
        </mxCell>
        <mxCell id="LJy8CON3-BYgUMsDqb2D-5" value="Evaluation via human feedback" style="rounded=0;whiteSpace=wrap;html=1;" vertex="1" parent="1">
          <mxGeometry x="40" y="360" width="120" height="40" as="geometry" />
        </mxCell>
      </root>
    </mxGraphModel>
  </diagram>
</mxfile>
